<mxfile host="app.diagrams.net" modified="2021-04-23T12:16:54.953Z" agent="5.0 (Macintosh; Intel Mac OS X 10_15_6) AppleWebKit/605.1.15 (KHTML, like Gecko) Version/14.0.3 Safari/605.1.15" etag="79Z8TClXggPSXhIk0JTv" version="14.6.6" type="github">
  <diagram name="Page-1" id="55a83fd1-7818-8e21-69c5-c3457e3827bb">
    <mxGraphModel dx="946" dy="673" grid="1" gridSize="10" guides="1" tooltips="1" connect="1" arrows="1" fold="1" page="1" pageScale="1" pageWidth="1100" pageHeight="850" background="#ffffff" math="0" shadow="0">
      <root>
        <mxCell id="0" />
        <mxCell id="1" parent="0" />
        <mxCell id="69ecfefc5c41e42c-18" style="edgeStyle=none;rounded=0;html=1;labelBackgroundColor=none;endArrow=none;strokeWidth=2;fontFamily=Verdana;fontSize=22" parent="1" target="69ecfefc5c41e42c-3" edge="1">
          <mxGeometry relative="1" as="geometry">
            <mxPoint x="510" y="385" as="sourcePoint" />
          </mxGeometry>
        </mxCell>
        <mxCell id="69ecfefc5c41e42c-2" value="Internet" style="image;html=1;labelBackgroundColor=#ffffff;image=img/lib/clip_art/networking/Cloud_128x128.png;rounded=1;shadow=0;comic=0;strokeWidth=2;fontSize=22;labelPosition=center;verticalLabelPosition=top;align=center;verticalAlign=bottom;" parent="1" vertex="1">
          <mxGeometry x="470" y="140" width="80" height="80" as="geometry" />
        </mxCell>
        <mxCell id="69ecfefc5c41e42c-19" style="edgeStyle=none;rounded=0;html=1;labelBackgroundColor=none;endArrow=none;strokeWidth=2;fontFamily=Verdana;fontSize=22" parent="1" source="69ecfefc5c41e42c-3" target="69ecfefc5c41e42c-2" edge="1">
          <mxGeometry relative="1" as="geometry" />
        </mxCell>
        <mxCell id="7t717o1gi653Xlh6uHHn-2" style="edgeStyle=orthogonalEdgeStyle;rounded=0;orthogonalLoop=1;jettySize=auto;html=1;" edge="1" parent="1" source="69ecfefc5c41e42c-3" target="7t717o1gi653Xlh6uHHn-1">
          <mxGeometry relative="1" as="geometry" />
        </mxCell>
        <object label="Firewall" DyDNSProvider="duckdns.org" DyDNSUser="Gmail - sfbushie@gmail.com" DNSname="sahomeserver.duckdns.org" Port="2022" CurrentServer="Ubuntu - 192.168.100.120" id="69ecfefc5c41e42c-3">
          <mxCell style="image;html=1;labelBackgroundColor=#ffffff;image=img/lib/clip_art/networking/Firewall_128x128.png;rounded=1;shadow=0;comic=0;strokeWidth=2;fontSize=22;labelPosition=right;verticalLabelPosition=middle;align=left;verticalAlign=middle;" parent="1" vertex="1">
            <mxGeometry x="470" y="290" width="80" height="80" as="geometry" />
          </mxCell>
        </object>
        <mxCell id="7t717o1gi653Xlh6uHHn-4" style="edgeStyle=orthogonalEdgeStyle;rounded=0;orthogonalLoop=1;jettySize=auto;html=1;entryX=1;entryY=0.5;entryDx=0;entryDy=0;" edge="1" parent="1" source="7t717o1gi653Xlh6uHHn-1" target="7t717o1gi653Xlh6uHHn-3">
          <mxGeometry relative="1" as="geometry" />
        </mxCell>
        <mxCell id="7t717o1gi653Xlh6uHHn-6" style="edgeStyle=orthogonalEdgeStyle;rounded=0;orthogonalLoop=1;jettySize=auto;html=1;" edge="1" parent="1" source="7t717o1gi653Xlh6uHHn-1" target="7t717o1gi653Xlh6uHHn-5">
          <mxGeometry relative="1" as="geometry">
            <mxPoint x="740" y="490" as="targetPoint" />
          </mxGeometry>
        </mxCell>
        <object label="PiHole(Bastion Machine)&lt;br&gt;192.168.100.100" IP="192.168.100.100" User="pi" id="7t717o1gi653Xlh6uHHn-1">
          <mxCell style="shape=image;html=1;verticalAlign=top;verticalLabelPosition=bottom;labelBackgroundColor=#ffffff;imageAspect=0;aspect=fixed;image=https://cdn2.iconfinder.com/data/icons/system-flat-buttons/512/raspberry-128.png" vertex="1" parent="1">
            <mxGeometry x="467.5" y="440" width="85" height="85" as="geometry" />
          </mxCell>
        </object>
        <object label="Ubuntu (Dev Server)" placeholders="1" IP="192.168.100.120" User="Ubuntu" Tasks="HomeAssistant" id="7t717o1gi653Xlh6uHHn-3">
          <mxCell style="image;html=1;image=img/lib/clip_art/computers/Server_128x128.png" vertex="1" parent="1">
            <mxGeometry x="100" y="442.5" width="80" height="80" as="geometry" />
          </mxCell>
        </object>
        <mxCell id="7t717o1gi653Xlh6uHHn-5" value="Kyocera Printer&lt;br&gt;" style="image;html=1;image=img/lib/clip_art/computers/Printer_128x128.png" vertex="1" parent="1">
          <mxGeometry x="800" y="442.5" width="80" height="80" as="geometry" />
        </mxCell>
      </root>
    </mxGraphModel>
  </diagram>
</mxfile>
